<?xml version="1.0"?>
<!-- Created by MetaPost 2.01 on 2022.08.11:1738 -->
<svg version="1.1" xmlns="http://www.w3.org/2000/svg" xmlns:xlink="http://www.w3.org/1999/xlink" width="245.262680" height="285.131927" viewBox="0 0 245.262680 285.131927">
<!-- Original BoundingBox: 1.167404 1.351349 245.262680 285.131927 -->
  <defs>
    <g transform="scale(0.017215,0.017215)" id="GLYPHcmss17_48">
      <path style="fill-rule: evenodd;" d="M431.000000 -327.000000C431.000000 -384.000000,430.000000 -490.000000,389.000000 -572.000000C348.000000 -651.000000,282.000000 -672.000000,235.000000 -672.000000C167.000000 -672.000000,109.000000 -632.000000,79.000000 -568.000000C47.000000 -501.000000,38.000000 -432.000000,38.000000 -327.000000C38.000000 -255.000000,41.000000 -167.000000,77.000000 -90.000000C118.000000 -5.000000,187.000000 16.000000,234.000000 16.000000C296.000000 16.000000,356.000000 -17.000000,390.000000 -86.000000C425.000000 -158.000000,431.000000 -237.000000,431.000000 -327.000000M234.000000 -45.000000C158.000000 -45.000000,135.000000 -132.000000,128.000000 -161.000000C116.000000 -211.000000,114.000000 -259.000000,114.000000 -338.000000C114.000000 -400.000000,114.000000 -470.000000,133.000000 -525.000000C156.000000 -589.000000,196.000000 -611.000000,234.000000 -611.000000C308.000000 -611.000000,332.000000 -537.000000,340.000000 -511.000000C355.000000 -458.000000,355.000000 -396.000000,355.000000 -338.000000C355.000000 -245.000000,355.000000 -45.000000,234.000000 -45.000000"></path>
    </g>
    <g transform="scale(0.017215,0.017215)" id="GLYPHcmss17_49">
      <path style="fill-rule: evenodd;" d="M284.000000 -672.000000L265.000000 -672.000000C211.000000 -616.000000,148.000000 -608.000000,84.000000 -606.000000L84.000000 -548.000000C113.000000 -549.000000,160.000000 -551.000000,207.000000 -572.000000L207.000000 -58.000000L89.000000 -58.000000L89.000000 -0.000000L402.000000 -0.000000L402.000000 -58.000000L284.000000 -58.000000"></path>
    </g>
    <g transform="scale(0.017215,0.017215)" id="GLYPHcmss17_50">
      <path style="fill-rule: evenodd;" d="M258.000000 -212.000000C286.000000 -241.000000,328.000000 -276.000000,357.000000 -311.000000C385.000000 -345.000000,422.000000 -393.000000,422.000000 -463.000000C422.000000 -573.000000,348.000000 -672.000000,222.000000 -672.000000C123.000000 -672.000000,66.000000 -610.000000,39.000000 -513.000000L78.000000 -459.000000C100.000000 -550.000000,131.000000 -608.000000,209.000000 -608.000000C295.000000 -608.000000,343.000000 -538.000000,343.000000 -461.000000C343.000000 -369.000000,273.000000 -298.000000,220.000000 -245.000000C161.000000 -186.000000,103.000000 -126.000000,47.000000 -64.000000L47.000000 -0.000000L422.000000 -0.000000L422.000000 -68.000000L252.000000 -68.000000C240.000000 -68.000000,228.000000 -67.000000,216.000000 -67.000000L116.000000 -67.000000L116.000000 -68.000000"></path>
    </g>
    <g transform="scale(0.017215,0.017215)" id="GLYPHcmss17_51">
      <path style="fill-rule: evenodd;" d="M157.000000 -324.000000L225.000000 -324.000000C319.000000 -324.000000,346.000000 -242.000000,346.000000 -185.000000C346.000000 -107.000000,302.000000 -46.000000,230.000000 -46.000000C174.000000 -46.000000,95.000000 -74.000000,50.000000 -148.000000C43.000000 -113.000000,43.000000 -111.000000,39.000000 -87.000000C86.000000 -18.000000,162.000000 16.000000,232.000000 16.000000C346.000000 16.000000,430.000000 -79.000000,430.000000 -184.000000C430.000000 -263.000000,375.000000 -329.000000,300.000000 -354.000000C360.000000 -387.000000,404.000000 -449.000000,404.000000 -521.000000C404.000000 -605.000000,327.000000 -672.000000,233.000000 -672.000000C147.000000 -672.000000,80.000000 -619.000000,52.000000 -562.000000C59.000000 -552.000000,77.000000 -523.000000,86.000000 -508.000000C108.000000 -567.000000,165.000000 -611.000000,232.000000 -611.000000C288.000000 -611.000000,325.000000 -574.000000,325.000000 -521.000000C325.000000 -466.000000,290.000000 -406.000000,231.000000 -392.000000C227.000000 -392.000000,165.000000 -386.000000,157.000000 -385.000000"></path>
    </g>
    <g transform="scale(0.017215,0.017215)" id="GLYPHcmss17_67">
      <path style="fill-rule: evenodd;" d="M547.000000 -115.000000C480.000000 -70.000000,449.000000 -57.000000,368.000000 -57.000000C228.000000 -57.000000,146.000000 -208.000000,146.000000 -346.000000C146.000000 -493.000000,230.000000 -638.000000,372.000000 -638.000000C436.000000 -638.000000,478.000000 -620.000000,529.000000 -588.000000L543.000000 -667.000000C495.000000 -691.000000,434.000000 -702.000000,373.000000 -702.000000C181.000000 -702.000000,62.000000 -525.000000,62.000000 -346.000000C62.000000 -149.000000,203.000000 7.000000,363.000000 7.000000C449.000000 7.000000,479.000000 -0.000000,553.000000 -47.000000"></path>
    </g>
    <g transform="scale(0.017215,0.017215)" id="GLYPHcmss17_68">
      <path style="fill-rule: evenodd;" d="M89.000000 -694.000000L89.000000 -0.000000L335.000000 -0.000000C499.000000 -0.000000,625.000000 -154.000000,625.000000 -341.000000C625.000000 -534.000000,499.000000 -694.000000,335.000000 -694.000000M171.000000 -56.000000L171.000000 -638.000000L313.000000 -638.000000C447.000000 -638.000000,543.000000 -515.000000,543.000000 -341.000000C543.000000 -174.000000,448.000000 -56.000000,313.000000 -56.000000"></path>
    </g>
    <g transform="scale(0.017215,0.017215)" id="GLYPHcmss17_69">
      <path style="fill-rule: evenodd;" d="M306.000000 -68.000000C226.000000 -68.000000,190.000000 -68.000000,172.000000 -67.000000L172.000000 -329.000000L482.000000 -329.000000L482.000000 -390.000000L172.000000 -390.000000L172.000000 -628.000000L301.000000 -628.000000C313.000000 -628.000000,325.000000 -627.000000,337.000000 -627.000000L508.000000 -627.000000L508.000000 -692.000000L88.000000 -692.000000L88.000000 -0.000000L521.000000 -0.000000L521.000000 -69.000000"></path>
    </g>
    <g transform="scale(0.017215,0.017215)" id="GLYPHcmss17_73">
      <path style="fill-rule: evenodd;" d="M171.000000 -694.000000L87.000000 -694.000000L87.000000 -0.000000L171.000000 -0.000000"></path>
    </g>
    <g transform="scale(0.017215,0.017215)" id="GLYPHcmss17_86">
      <path style="fill-rule: evenodd;" d="M611.000000 -694.000000L533.000000 -694.000000L360.000000 -214.000000C355.000000 -200.000000,324.000000 -108.000000,318.000000 -76.000000L317.000000 -76.000000C309.000000 -114.000000,277.000000 -203.000000,260.000000 -252.000000L144.000000 -577.000000L101.000000 -694.000000L13.000000 -694.000000L268.000000 -0.000000L356.000000 -0.000000"></path>
    </g>
    <g transform="scale(0.017215,0.017215)" id="GLYPHcmss17_97">
      <path style="fill-rule: evenodd;" d="M376.000000 -283.000000C376.000000 -377.000000,309.000000 -442.000000,219.000000 -442.000000C175.000000 -442.000000,127.000000 -434.000000,72.000000 -402.000000L78.000000 -336.000000C103.000000 -354.000000,146.000000 -383.000000,218.000000 -383.000000C269.000000 -383.000000,300.000000 -344.000000,300.000000 -282.000000L300.000000 -244.000000C140.000000 -239.000000,40.000000 -193.000000,40.000000 -114.000000C40.000000 -73.000000,65.000000 8.000000,148.000000 8.000000C163.000000 8.000000,244.000000 6.000000,302.000000 -37.000000L302.000000 -0.000000L376.000000 -0.000000M300.000000 -132.000000C300.000000 -114.000000,300.000000 -90.000000,270.000000 -72.000000C244.000000 -55.000000,211.000000 -53.000000,197.000000 -53.000000C147.000000 -53.000000,113.000000 -81.000000,113.000000 -116.000000C113.000000 -186.000000,269.000000 -193.000000,300.000000 -194.000000"></path>
    </g>
    <g transform="scale(0.017215,0.017215)" id="GLYPHcmss17_99">
      <path style="fill-rule: evenodd;" d="M385.000000 -399.000000C385.000000 -406.000000,339.000000 -426.000000,327.000000 -430.000000C294.000000 -442.000000,252.000000 -442.000000,241.000000 -442.000000C111.000000 -442.000000,33.000000 -329.000000,33.000000 -215.000000C33.000000 -95.000000,120.000000 8.000000,237.000000 8.000000C304.000000 8.000000,352.000000 -14.000000,391.000000 -40.000000L385.000000 -106.000000C342.000000 -73.000000,292.000000 -55.000000,238.000000 -55.000000C160.000000 -55.000000,109.000000 -123.000000,109.000000 -216.000000C109.000000 -288.000000,142.000000 -379.000000,242.000000 -379.000000C297.000000 -379.000000,328.000000 -368.000000,374.000000 -337.000000"></path>
    </g>
    <g transform="scale(0.017215,0.017215)" id="GLYPHcmss17_101">
      <path style="fill-rule: evenodd;" d="M391.000000 -219.000000C391.000000 -252.000000,389.000000 -316.000000,357.000000 -369.000000C322.000000 -426.000000,265.000000 -442.000000,222.000000 -442.000000C118.000000 -442.000000,30.000000 -344.000000,30.000000 -217.000000C30.000000 -93.000000,121.000000 8.000000,236.000000 8.000000C281.000000 8.000000,336.000000 -5.000000,386.000000 -41.000000C386.000000 -45.000000,384.000000 -67.000000,383.000000 -68.000000C383.000000 -70.000000,380.000000 -101.000000,380.000000 -105.000000C332.000000 -66.000000,277.000000 -53.000000,237.000000 -53.000000C173.000000 -53.000000,104.000000 -107.000000,101.000000 -219.000000M109.000000 -274.000000C122.000000 -329.000000,166.000000 -381.000000,222.000000 -381.000000C237.000000 -381.000000,307.000000 -379.000000,325.000000 -274.000000"></path>
    </g>
    <g transform="scale(0.017215,0.017215)" id="GLYPHcmss17_102">
      <path style="fill-rule: evenodd;" d="M168.000000 -372.000000L269.000000 -372.000000L269.000000 -430.000000L166.000000 -430.000000L166.000000 -558.000000C166.000000 -629.000000,220.000000 -641.000000,251.000000 -641.000000C261.000000 -641.000000,289.000000 -641.000000,325.000000 -628.000000L325.000000 -694.000000C302.000000 -699.000000,274.000000 -702.000000,252.000000 -702.000000C159.000000 -702.000000,94.000000 -626.000000,94.000000 -527.000000L94.000000 -430.000000L25.000000 -430.000000L25.000000 -372.000000L94.000000 -372.000000L94.000000 -0.000000L168.000000 -0.000000"></path>
    </g>
    <g transform="scale(0.017215,0.017215)" id="GLYPHcmss17_103">
      <path style="fill-rule: evenodd;" d="M445.000000 -438.000000C388.000000 -437.000000,339.000000 -426.000000,299.000000 -407.000000C266.000000 -433.000000,232.000000 -438.000000,209.000000 -438.000000C122.000000 -438.000000,56.000000 -366.000000,56.000000 -282.000000C56.000000 -228.000000,86.000000 -187.000000,88.000000 -185.000000C70.000000 -160.000000,60.000000 -133.000000,60.000000 -103.000000C60.000000 -68.000000,74.000000 -43.000000,85.000000 -29.000000C33.000000 3.000000,26.000000 52.000000,26.000000 71.000000C26.000000 144.000000,117.000000 204.000000,234.000000 204.000000C352.000000 204.000000,443.000000 144.000000,443.000000 70.000000C443.000000 -68.000000,290.000000 -69.000000,248.000000 -69.000000L167.000000 -69.000000C152.000000 -69.000000,112.000000 -69.000000,112.000000 -120.000000C112.000000 -140.000000,121.000000 -153.000000,122.000000 -154.000000C137.000000 -143.000000,168.000000 -126.000000,209.000000 -126.000000C292.000000 -126.000000,361.000000 -196.000000,361.000000 -282.000000C361.000000 -330.000000,339.000000 -365.000000,330.000000 -377.000000L333.000000 -377.000000C336.000000 -377.000000,378.000000 -380.000000,393.000000 -380.000000C425.000000 -380.000000,428.000000 -379.000000,456.000000 -376.000000M209.000000 -181.000000C175.000000 -181.000000,127.000000 -202.000000,127.000000 -282.000000C127.000000 -369.000000,182.000000 -383.000000,208.000000 -383.000000C242.000000 -383.000000,290.000000 -362.000000,290.000000 -282.000000C290.000000 -195.000000,235.000000 -181.000000,209.000000 -181.000000M247.000000 4.000000C271.000000 4.000000,372.000000 4.000000,372.000000 72.000000C372.000000 115.000000,310.000000 149.000000,235.000000 149.000000C159.000000 149.000000,97.000000 116.000000,97.000000 71.000000C97.000000 66.000000,97.000000 4.000000,166.000000 4.000000"></path>
    </g>
    <g transform="scale(0.017215,0.017215)" id="GLYPHcmss17_105">
      <path style="fill-rule: evenodd;" d="M153.000000 -658.000000L69.000000 -658.000000L69.000000 -574.000000L153.000000 -574.000000M148.000000 -430.000000L74.000000 -430.000000L74.000000 -0.000000L148.000000 -0.000000"></path>
    </g>
    <g transform="scale(0.017215,0.017215)" id="GLYPHcmss17_108">
      <path style="fill-rule: evenodd;" d="M148.000000 -694.000000L74.000000 -694.000000L74.000000 -0.000000L148.000000 -0.000000"></path>
    </g>
    <g transform="scale(0.017215,0.017215)" id="GLYPHcmss17_112">
      <path style="fill-rule: evenodd;" d="M151.000000 -45.000000C184.000000 -13.000000,229.000000 8.000000,277.000000 8.000000C370.000000 8.000000,450.000000 -88.000000,450.000000 -216.000000C450.000000 -334.000000,390.000000 -438.000000,304.000000 -438.000000C254.000000 -438.000000,194.000000 -420.000000,149.000000 -384.000000L149.000000 -430.000000L75.000000 -430.000000L75.000000 195.000000L151.000000 195.000000M151.000000 -325.000000C159.000000 -337.000000,193.000000 -375.000000,248.000000 -375.000000C318.000000 -375.000000,374.000000 -303.000000,374.000000 -216.000000C374.000000 -117.000000,306.000000 -53.000000,239.000000 -53.000000C219.000000 -53.000000,198.000000 -58.000000,178.000000 -75.000000C151.000000 -99.000000,151.000000 -114.000000,151.000000 -128.000000"></path>
    </g>
    <g transform="scale(0.017215,0.017215)" id="GLYPHcmss17_116">
      <path style="fill-rule: evenodd;" d="M167.000000 -372.000000L297.000000 -372.000000L297.000000 -430.000000L167.000000 -430.000000L167.000000 -553.000000L96.000000 -553.000000L96.000000 -430.000000L17.000000 -430.000000L17.000000 -372.000000L94.000000 -372.000000L94.000000 -119.000000C94.000000 -62.000000,107.000000 8.000000,173.000000 8.000000C223.000000 8.000000,269.000000 -6.000000,313.000000 -29.000000L297.000000 -88.000000C273.000000 -67.000000,244.000000 -55.000000,213.000000 -55.000000C169.000000 -55.000000,167.000000 -111.000000,167.000000 -136.000000"></path>
    </g>
  </defs>
  <g transform="translate(45.432236 21.686310)" style="fill: rgb(0.000000%,0.000000%,0.000000%);">
    <use xlink:href="#GLYPHcmss17_68"></use>
    <use xlink:href="#GLYPHcmss17_69" x="11.715348"></use>
    <use xlink:href="#GLYPHcmss17_86" x="21.409857"></use>
    <use xlink:href="#GLYPHcmss17_73" x="32.201590"></use>
    <use xlink:href="#GLYPHcmss17_67" x="36.673825"></use>
    <use xlink:href="#GLYPHcmss17_69" x="47.055849"></use>
  </g>
  <path d="M1.417404 31.299347C49.605698 31.299347,97.796188 31.299347,145.984482 31.299347L145.984482 0.118073C97.796188 0.118073,49.605698 0.118073,1.417404 0.118073Z" style="stroke:rgb(0.000000%,0.000000%,0.000000%); stroke-width: 0.500000;stroke-linecap: round;stroke-linejoin: round;stroke-miterlimit: 10.000000;fill: none;"></path>
  <g transform="translate(25.040680 76.372864)" style="fill: rgb(0.000000%,0.000000%,0.000000%);">
    <use xlink:href="#GLYPHcmss17_101"></use>
    <use xlink:href="#GLYPHcmss17_112" x="7.222283"></use>
    <use xlink:href="#GLYPHcmss17_48" x="15.583466"></use>
  </g>
  <path d="M60.760757 72.401611C60.760757 66.059937,58.241165 59.978745,53.757248 55.494843C49.273346 51.010925,43.192154 48.491333,36.850479 48.491333C30.508804 48.491333,24.427612 51.010925,19.943710 55.494843C15.459793 59.978745,12.940201 66.059937,12.940201 72.401611C12.940201 78.743286,15.459793 84.824478,19.943710 89.308380C24.427612 93.792297,30.508804 96.311890,36.850479 96.311890C43.192154 96.311890,49.273346 93.792297,53.757248 89.308380C58.241165 84.824478,60.760757 78.743286,60.760757 72.401611Z" style="stroke:rgb(0.000000%,0.000000%,0.000000%); stroke-width: 0.500000;stroke-linecap: round;stroke-linejoin: round;stroke-miterlimit: 10.000000;fill: none;"></path>
  <g transform="translate(99.220306 76.704956)" style="fill: rgb(0.000000%,0.000000%,0.000000%);">
    <use xlink:href="#GLYPHcmss17_99"></use>
    <use xlink:href="#GLYPHcmss17_102" x="7.222283"></use>
    <use xlink:href="#GLYPHcmss17_103" x="12.187594"></use>
    <use xlink:href="#GLYPHcmss17_49" x="20.312647"></use>
  </g>
  <path d="M137.296082 72.401611C137.296082 66.059937,134.776489 59.978745,130.292572 55.494843C125.808670 51.010925,119.727478 48.491333,113.385803 48.491333C107.044128 48.491333,100.962936 51.010925,96.479034 55.494843C91.995117 59.978745,89.475525 66.059937,89.475525 72.401611C89.475525 78.743286,91.995117 84.824478,96.479034 89.308380C100.962936 93.792297,107.044128 96.311890,113.385803 96.311890C119.727478 96.311890,125.808670 93.792297,130.292572 89.308380C134.776489 84.824478,137.296082 78.743286,137.296082 72.401611Z" style="stroke:rgb(0.000000%,0.000000%,0.000000%); stroke-width: 0.500000;stroke-linecap: round;stroke-linejoin: round;stroke-miterlimit: 10.000000;fill: none;"></path>
  <g transform="translate(104.948746 143.576141)" style="fill: rgb(0.000000%,0.000000%,0.000000%);">
    <use xlink:href="#GLYPHcmss17_105"></use>
    <use xlink:href="#GLYPHcmss17_102" x="3.847257"></use>
    <use xlink:href="#GLYPHcmss17_49" x="8.812568"></use>
  </g>
  <path d="M137.296082 137.598541C137.296082 131.256866,134.776489 125.175674,130.292572 120.691772C125.808670 116.207855,119.727478 113.688263,113.385803 113.688263C107.044128 113.688263,100.962936 116.207855,96.479034 120.691772C91.995117 125.175674,89.475525 131.256866,89.475525 137.598541C89.475525 143.940216,91.995117 150.021408,96.479034 154.505310C100.962936 158.989227,107.044128 161.508820,113.385803 161.508820C119.727478 161.508820,125.808670 158.989227,130.292572 154.505310C134.776489 150.021408,137.296082 143.940216,137.296082 137.598541Z" style="stroke:rgb(0.000000%,0.000000%,0.000000%); stroke-width: 0.500000;stroke-linecap: round;stroke-linejoin: round;stroke-miterlimit: 10.000000;fill: none;"></path>
  <g transform="translate(212.665344 143.576141)" style="fill: rgb(0.000000%,0.000000%,0.000000%);">
    <use xlink:href="#GLYPHcmss17_105"></use>
    <use xlink:href="#GLYPHcmss17_102" x="3.847257"></use>
    <use xlink:href="#GLYPHcmss17_48" x="8.812568"></use>
  </g>
  <path d="M245.012680 137.598541C245.012680 131.256866,242.493088 125.175674,238.009171 120.691772C233.525269 116.207855,227.444077 113.688263,221.102402 113.688263C214.760727 113.688263,208.679535 116.207855,204.195633 120.691772C199.711716 125.175674,197.192123 131.256866,197.192123 137.598541C197.192123 143.940216,199.711716 150.021408,204.195633 154.505310C208.679535 158.989227,214.760727 161.508820,221.102402 161.508820C227.444077 161.508820,233.525269 158.989227,238.009171 154.505310C242.493088 150.021408,245.012680 143.940216,245.012680 137.598541Z" style="stroke:rgb(0.000000%,0.000000%,0.000000%); stroke-width: 0.500000;stroke-linecap: round;stroke-linejoin: round;stroke-miterlimit: 10.000000;fill: none;"></path>
  <g transform="translate(100.617798 205.938248)" style="fill: rgb(0.000000%,0.000000%,0.000000%);">
    <use xlink:href="#GLYPHcmss17_97"></use>
    <use xlink:href="#GLYPHcmss17_108" x="7.791741"></use>
    <use xlink:href="#GLYPHcmss17_116" x="11.638997"></use>
    <use xlink:href="#GLYPHcmss17_48" x="17.507109"></use>
  </g>
  <path d="M137.296082 199.960648C137.296082 193.618973,134.776489 187.537781,130.292572 183.053879C125.808670 178.569962,119.727478 176.050369,113.385803 176.050369C107.044128 176.050369,100.962936 178.569962,96.479034 183.053879C91.995117 187.537781,89.475525 193.618973,89.475525 199.960648C89.475525 206.302322,91.995117 212.383514,96.479034 216.867416C100.962936 221.351334,107.044128 223.870926,113.385803 223.870926C119.727478 223.870926,125.808670 221.351334,130.292572 216.867416C134.776489 212.383514,137.296082 206.302322,137.296082 199.960648Z" style="stroke:rgb(0.000000%,0.000000%,0.000000%); stroke-width: 0.500000;stroke-linecap: round;stroke-linejoin: round;stroke-miterlimit: 10.000000;fill: none;"></path>
  <g transform="translate(208.334396 205.938248)" style="fill: rgb(0.000000%,0.000000%,0.000000%);">
    <use xlink:href="#GLYPHcmss17_97"></use>
    <use xlink:href="#GLYPHcmss17_108" x="7.791741"></use>
    <use xlink:href="#GLYPHcmss17_116" x="11.638997"></use>
    <use xlink:href="#GLYPHcmss17_48" x="17.507109"></use>
  </g>
  <path d="M245.012680 199.960648C245.012680 193.618973,242.493088 187.537781,238.009171 183.053879C233.525269 178.569962,227.444077 176.050369,221.102402 176.050369C214.760727 176.050369,208.679535 178.569962,204.195633 183.053879C199.711716 187.537781,197.192123 193.618973,197.192123 199.960648C197.192123 206.302322,199.711716 212.383514,204.195633 216.867416C208.679535 221.351334,214.760727 223.870926,221.102402 223.870926C227.444077 223.870926,233.525269 221.351334,238.009171 216.867416C242.493088 212.383514,245.012680 206.302322,245.012680 199.960648Z" style="stroke:rgb(0.000000%,0.000000%,0.000000%); stroke-width: 0.500000;stroke-linecap: round;stroke-linejoin: round;stroke-miterlimit: 10.000000;fill: none;"></path>
  <g transform="translate(56.221512 263.459625)" style="fill: rgb(0.000000%,0.000000%,0.000000%);">
    <use xlink:href="#GLYPHcmss17_101"></use>
    <use xlink:href="#GLYPHcmss17_112" x="7.222283"></use>
    <use xlink:href="#GLYPHcmss17_49" x="15.583466"></use>
  </g>
  <path d="M91.941589 259.488373C91.941589 253.146698,89.421997 247.065506,84.938080 242.581604C80.454178 238.097687,74.372986 235.578094,68.031311 235.578094C61.689636 235.578094,55.608444 238.097687,51.124542 242.581604C46.640625 247.065506,44.121033 253.146698,44.121033 259.488373C44.121033 265.830048,46.640625 271.911240,51.124542 276.395142C55.608444 280.879059,61.689636 283.398651,68.031311 283.398651C74.372986 283.398651,80.454178 280.879059,84.938080 276.395142C89.421997 271.911240,91.941589 265.830048,91.941589 259.488373Z" style="stroke:rgb(0.000000%,0.000000%,0.000000%); stroke-width: 0.500000;stroke-linecap: round;stroke-linejoin: round;stroke-miterlimit: 10.000000;fill: none;"></path>
  <g transform="translate(146.930496 263.459625)" style="fill: rgb(0.000000%,0.000000%,0.000000%);">
    <use xlink:href="#GLYPHcmss17_101"></use>
    <use xlink:href="#GLYPHcmss17_112" x="7.222283"></use>
    <use xlink:href="#GLYPHcmss17_50" x="15.583466"></use>
  </g>
  <path d="M182.650574 259.488373C182.650574 253.146698,180.130981 247.065506,175.647064 242.581604C171.163162 238.097687,165.081970 235.578094,158.740295 235.578094C152.398621 235.578094,146.317429 238.097687,141.833527 242.581604C137.349609 247.065506,134.830017 253.146698,134.830017 259.488373C134.830017 265.830048,137.349609 271.911240,141.833527 276.395142C146.317429 280.879059,152.398621 283.398651,158.740295 283.398651C165.081970 283.398651,171.163162 280.879059,175.647064 276.395142C180.130981 271.911240,182.650574 265.830048,182.650574 259.488373Z" style="stroke:rgb(0.000000%,0.000000%,0.000000%); stroke-width: 0.500000;stroke-linecap: round;stroke-linejoin: round;stroke-miterlimit: 10.000000;fill: none;"></path>
  <g transform="translate(209.292603 263.459625)" style="fill: rgb(0.000000%,0.000000%,0.000000%);">
    <use xlink:href="#GLYPHcmss17_101"></use>
    <use xlink:href="#GLYPHcmss17_112" x="7.222283"></use>
    <use xlink:href="#GLYPHcmss17_51" x="15.583466"></use>
  </g>
  <path d="M245.012680 259.488373C245.012680 253.146698,242.493088 247.065506,238.009171 242.581604C233.525269 238.097687,227.444077 235.578094,221.102402 235.578094C214.760727 235.578094,208.679535 238.097687,204.195633 242.581604C199.711716 247.065506,197.192123 253.146698,197.192123 259.488373C197.192123 265.830048,199.711716 271.911240,204.195633 276.395142C208.679535 280.879059,214.760727 283.398651,221.102402 283.398651C227.444077 283.398651,233.525269 280.879059,238.009171 276.395142C242.493088 271.911240,245.012680 265.830048,245.012680 259.488373Z" style="stroke:rgb(0.000000%,0.000000%,0.000000%); stroke-width: 0.500000;stroke-linecap: round;stroke-linejoin: round;stroke-miterlimit: 10.000000;fill: none;"></path>
  <path d="M36.850479 31.299347L36.850479 48.491333" style="stroke:rgb(0.000000%,0.000000%,0.000000%); stroke-width: 0.500000;stroke-linecap: round;stroke-linejoin: round;stroke-miterlimit: 10.000000;fill: none;"></path>
  <path d="M113.385803 31.299347L113.385803 48.491333" style="stroke:rgb(0.000000%,0.000000%,0.000000%); stroke-width: 0.500000;stroke-linecap: round;stroke-linejoin: round;stroke-miterlimit: 10.000000;fill: none;"></path>
  <path d="M113.385803 96.311890L113.385803 113.688263" style="stroke:rgb(0.000000%,0.000000%,0.000000%); stroke-width: 0.500000;stroke-linecap: round;stroke-linejoin: round;stroke-miterlimit: 10.000000;fill: none;"></path>
  <path d="M133.841034 84.782516L200.647171 125.217636" style="stroke:rgb(0.000000%,0.000000%,0.000000%); stroke-width: 0.500000;stroke-linecap: round;stroke-linejoin: round;stroke-miterlimit: 10.000000;fill: none;"></path>
  <path d="M113.385803 161.508820L113.385803 176.050369" style="stroke:rgb(0.000000%,0.000000%,0.000000%); stroke-width: 0.500000;stroke-linecap: round;stroke-linejoin: round;stroke-miterlimit: 10.000000;fill: none;"></path>
  <path d="M221.102402 161.508820L221.102402 176.050369" style="stroke:rgb(0.000000%,0.000000%,0.000000%); stroke-width: 0.500000;stroke-linecap: round;stroke-linejoin: round;stroke-miterlimit: 10.000000;fill: none;"></path>
  <path d="M98.895020 218.979492L82.522095 240.469528" style="stroke:rgb(0.000000%,0.000000%,0.000000%); stroke-width: 0.500000;stroke-linecap: round;stroke-linejoin: round;stroke-miterlimit: 10.000000;fill: none;"></path>
  <path d="M127.876587 218.979492L144.249512 240.469528" style="stroke:rgb(0.000000%,0.000000%,0.000000%); stroke-width: 0.500000;stroke-linecap: round;stroke-linejoin: round;stroke-miterlimit: 10.000000;fill: none;"></path>
  <path d="M221.102402 223.870926L221.102402 235.578094" style="stroke:rgb(0.000000%,0.000000%,0.000000%); stroke-width: 0.500000;stroke-linecap: round;stroke-linejoin: round;stroke-miterlimit: 10.000000;fill: none;"></path>
</svg>
